<?xml version="1.0" encoding="UTF-8"?>
<svg width="20px" height="30px" viewBox="0 0 20 30" version="1.1" xmlns="http://www.w3.org/2000/svg" xmlns:xlink="http://www.w3.org/1999/xlink">
    <!-- Generator: Sketch 55.1 (78136) - https://sketchapp.com -->
    <title>Group</title>
    <desc>Created with Sketch.</desc>
    <g id="Page-1" stroke="none" stroke-width="1" fill="none" fill-rule="evenodd">
        <g id="Artboard" transform="translate(-5.000000, 0.000000)" fill="#00436D">
            <g id="Group" transform="translate(5.000000, 0.000000)">
                <path d="M0.00277274976,10.2378341 C0.000927661369,10.1587796 0,10.0794981 0,10 C0,4.4771525 4.4771525,0 10,0 C15.5228475,0 20,4.4771525 20,10 C20,10.0794981 19.9990723,10.1587796 19.9972273,10.2378341 C19.9990723,10.3167634 20,10.3959813 20,10.4754795 C20,15.998327 13.2347825,30 10,30 C6.7652175,30 0,15.998327 0,10.4754795 C0,10.3959813 0.000927661369,10.3167634 0.00277274976,10.2378341 Z M10,15 C12.7614237,15 15,12.7614237 15,10 C15,7.23857625 12.7614237,5 10,5 C7.23857625,5 5,7.23857625 5,10 C5,12.7614237 7.23857625,15 10,15 Z" id="Combined-Shape"></path>
            </g>
        </g>
    </g>
</svg>